# xmcd CD database file
#
# Track frame offsets:
#	150
#	18321
#	39594
#	60926
#	82326
#	105341
#	130083
#	155566
#	171519
#	191900
#	211515
#	234450
#
# Disc length: 3395 seconds
#
# Revision: 1
# Processed by: cddbd v1.5.1PL2 Copyright (c) Steve Scherf et al.
# Submitted via: CDex 1.51
#
DISCID=990d410c
DTITLE=Juan Manuel Lebròn - En ruta con su exitos
DYEAR=1900
DGENRE=Salsa
TTITLE0=Amores sin sentido
TTITLE1=Dos
TTITLE2=Rompecabezas
TTITLE3=Nuestro aniversario
TTITLE4=Ella y tù
TTITLE5=Amor fugaz
TTITLE6=Bello es vivir
TTITLE7=Chiquilla
TTITLE8=Loco por tenerte
TTITLE9=Sentirte cerca
TTITLE10=Represento
TTITLE11=lo mejor que hiciste
EXTD=
EXTT0=
EXTT1=
EXTT2=
EXTT3=
EXTT4=
EXTT5=
EXTT6=
EXTT7=
EXTT8=
EXTT9=
EXTT10=
EXTT11=
PLAYORDER=
